<svg height="496pt" viewBox="0 0 496 496" width="496pt" xmlns="http://www.w3.org/2000/svg"><path d="m176 176c-79.398438 0-144 64.601562-144 144s64.601562 144 144 144 144-64.601562 144-144-64.601562-144-144-144zm0 272c-70.574219 0-128-57.425781-128-128s57.425781-128 128-128 128 57.425781 128 128-57.425781 128-128 128zm0 0"/><path d="m415.71875 183.382812 15.953125 1.226563c.214844-2.839844.328125-5.714844.328125-8.609375 0-61.761719-50.238281-112-112-112v16c52.9375 0 96 43.0625 96 96 0 2.488281-.097656 4.953125-.28125 7.382812zm0 0"/><path d="m429 201.839844-15.558594-3.679688c-1.195312 5.039063-2.824218 10.03125-4.816406 14.824219l14.765625 6.160156c2.328125-5.601562 4.21875-11.417969 5.609375-17.304687zm0 0"/><path d="m496 176c0-97.046875-78.953125-176-176-176-85.664062 0-158.921875 62.566406-173.160156 146.464844-83.214844 13.933594-146.839844 86.421875-146.839844 173.535156 0 97.046875 78.953125 176 176 176 87.113281 0 159.601562-63.625 173.535156-146.839844 83.898438-14.238281 146.464844-87.503906 146.464844-173.160156zm-320 304c-88.222656 0-160-71.777344-160-160s71.777344-160 160-160 160 71.777344 160 160-71.777344 160-160 160zm19.96875-334.832031c14-56.792969 64.75-97.167969 124.03125-97.167969 70.574219 0 128 57.425781 128 128 0 59.273438-40.375 110.03125-97.167969 124.023438-9.207031-81.113282-73.742187-145.648438-154.863281-154.855469zm155.535156 187.398437c.296875-4.160156.496094-8.335937.496094-12.566406 0-1.289062-.070312-2.558594-.097656-3.832031 65.335937-14.769531 112.097656-72.519531 112.097656-140.167969 0-79.398438-64.601562-144-144-144-67.648438 0-125.398438 46.753906-140.167969 112.097656-1.28125-.027344-2.542969-.097656-3.832031-.097656-4.230469 0-8.40625.199219-12.566406.496094 14.8125-73.921875 80.285156-128.496094 156.566406-128.496094 88.222656 0 160 71.777344 160 160 0 76.28125-54.585938 141.753906-128.496094 156.566406zm0 0"/><path d="m146.339844 410.34375 127.996094-127.996094 11.3125 11.3125-127.996094 127.996094zm0 0"/><path d="m106.339844 378.34375 127.996094-127.996094 11.3125 11.3125-127.996094 127.996094zm0 0"/><path d="m66.339844 346.339844 107.144531-107.144532 11.3125 11.3125-107.144531 107.148438zm0 0"/><path d="m183.464844 229.21875 10.875-10.871094 11.3125 11.3125-10.871094 10.875zm0 0"/></svg>