<svg fill='#ffdb6a' id="Layer_1" data-name="Layer 1" xmlns="http://www.w3.org/2000/svg" viewBox="0 0 500 232.64"><defs><style>.cls-1{fill:none;} </style></defs><title>awLogo</title><path class="cls-1" d="M556.39,512.49h-500V279.85h500V512.49Zm-287.85-122c-5.8-11.23-10.63-21.56-16.31-31.4C239.46,337,224,317.26,201.09,304.68c-20.07-11-41.46-14.65-63.84-10-28.33,6-48.79,23.16-63,47.64A119.8,119.8,0,0,0,58,412.68c1.72,23.55,8.85,45,24.06,63.35C105.11,503.79,135,513.51,170,508c26.78-4.24,49.41-17.55,69.9-34.78,5.24-4.4,10.31-9,16.24-14.2,2.5,12.33,5,23.88,7.14,35.51,1.91,10.41,10.08,16.8,19.87,15,9.52-1.7,15.36-10.56,13.07-20.68-4.1-18.17-8.46-36.28-12.92-54.36a11.46,11.46,0,0,1,1.8-10.19c10.7-16.21,20.94-32.73,31.19-49.23,2.71-4.36,4.9-9.05,7.78-14.45,4.77,15.15,9.18,29.09,13.55,43,8.64,27.61,17.2,55.24,25.94,82.82,1.82,5.76,6,9.41,11.95,10.86,8.88,2.17,18.43-3.49,22.44-13.46C406.75,462,415.46,440,424.24,418.1c3.44-8.59,7-17.15,10.77-26.5,1.24,1.86,2.08,3,2.76,4.16q24,41.83,48,83.67c3.92,6.82,13.06,10.72,20.8,9.19,7.57-1.5,12-6.72,13.64-15.49,5.59-29.37,11.33-58.71,17-88.07q8.12-42.15,16.16-84.32a16.71,16.71,0,0,0-32.61-7.13c-0.52,2-.72,4.11-1.12,6.17q-11,57.31-22,114.62c-0.76,4-1.73,7.88-2.6,11.82a37.91,37.91,0,0,1-6.13-8.57c-13.47-23.4-27-46.74-40.35-70.24-3.66-6.47-8.55-10.53-16.06-10.36s-12.71,4.27-15.53,11.11c-8.63,20.94-17.14,41.94-25.69,62.92l-8.82,21.63a12.51,12.51,0,0,1-1.37-2q-19.29-61.41-38.51-122.84c-2.12-6.81-6.37-11.15-13.34-12.41s-12.72,1.27-16.8,7a48.48,48.48,0,0,0-4.64,8.43c-7.9,17.92-15.32,36.06-23.69,53.76C279.9,373.44,274.06,381.43,268.54,390.5Z" transform="translate(-56.39 -279.85)"/><path d="M268.54,390.5c5.52-9.08,11.36-17.06,15.51-25.84,8.37-17.7,15.79-35.84,23.69-53.76a48.48,48.48,0,0,1,4.64-8.43c4.08-5.77,9.81-8.31,16.8-7s11.21,5.6,13.34,12.41Q361.67,369.3,381,430.7a12.51,12.51,0,0,0,1.37,2l8.82-21.63c8.55-21,17.06-42,25.69-62.92,2.82-6.84,8-10.95,15.53-11.11s12.4,3.89,16.06,10.36c13.3,23.5,26.87,46.84,40.35,70.24A37.91,37.91,0,0,0,495,426.2c0.87-3.94,1.83-7.86,2.6-11.82q11-57.3,22-114.62c0.39-2.05.59-4.15,1.12-6.17a16.71,16.71,0,0,1,32.61,7.13q-8,42.18-16.16,84.32c-5.65,29.36-11.39,58.7-17,88.07-1.67,8.77-6.06,14-13.64,15.49-7.74,1.54-16.88-2.37-20.8-9.19q-24-41.8-48-83.67c-0.68-1.19-1.52-2.3-2.76-4.16-3.8,9.35-7.33,17.91-10.77,26.5C415.46,440,406.75,462,397.94,483.92c-4,10-13.56,15.62-22.44,13.46-5.95-1.45-10.12-5.1-11.95-10.86-8.74-27.58-17.3-55.21-25.94-82.82-4.37-14-8.78-27.89-13.55-43-2.88,5.39-5.07,10.09-7.78,14.45-10.25,16.5-20.49,33-31.19,49.23a11.46,11.46,0,0,0-1.8,10.19c4.46,18.08,8.82,36.19,12.92,54.36,2.28,10.12-3.56,19-13.07,20.68-9.79,1.75-18-4.63-19.87-15-2.13-11.63-4.64-23.18-7.14-35.51-5.93,5.2-11,9.79-16.24,14.2C219.4,490.42,196.78,503.74,170,508c-35,5.53-64.88-4.19-87.91-31.94C66.88,457.7,59.75,436.23,58,412.68a119.8,119.8,0,0,1,16.18-70.32c14.24-24.49,34.71-41.69,63-47.64,22.38-4.7,43.77-1.06,63.84,10C224,317.26,239.46,337,252.23,359.11,257.91,368.94,262.74,379.27,268.54,390.5Zm-111.72,85.8c4.2-.88,12.1-1.79,19.5-4.23,27-8.9,47.52-27,66-47.81,1.05-1.18,1.31-4,.68-5.59-4.48-11-8.81-22.13-14.1-32.75-9-18-19.95-34.5-36-47.1A58.24,58.24,0,0,0,116,342.59C91.24,366.46,83.74,408,98.62,440,109.37,463.13,127.34,475.64,156.82,476.31Z" transform="translate(-56.39 -279.85)"/><path class="cls-1" d="M156.82,476.31c-29.48-.66-47.45-13.18-58.2-36.32-14.89-32-7.39-73.53,17.4-97.4a58.24,58.24,0,0,1,76.79-3.77c16.1,12.61,27.1,29.15,36,47.1,5.3,10.62,9.62,21.74,14.1,32.75,0.63,1.56.37,4.41-.68,5.59-18.45,20.79-39,38.91-66,47.81C168.93,474.52,161,475.43,156.82,476.31Z" transform="translate(-56.39 -279.85)"/></svg>