<svg id="Layer_1" data-name="Layer 1" xmlns="http://www.w3.org/2000/svg" viewBox="0 0 309 166.84"><defs><style>.cls-1{fill:#f26c4f;}</style></defs><title>yellow logo without eye</title><path class="cls-1" d="M363.21-123a62.41,62.41,0,0,1-10.47-18.55c-0.09-.5-0.16-1-0.26-1.49-1-5.29-2.11-10.16-3.17-14.7-5.49-23.34-11-36.73-11.89-38.92l-0.15-.36h0a83.46,83.46,0,0,0-82-48.44,83.67,83.67,0,0,0-77,77,83.51,83.51,0,0,0,83.19,89.61,83.51,83.51,0,0,0,74.95-46.83,83.89,83.89,0,0,0,10.22,16,10.64,10.64,0,0,0,15.82.76A10.54,10.54,0,0,0,363.21-123Zm-39.73-34.19a62.47,62.47,0,0,1-56.94,56.94,62.28,62.28,0,0,1-67.08-67.08,62.46,62.46,0,0,1,56.93-56.93A62.28,62.28,0,0,1,323.48-157.23Z" transform="translate(-178.06 245.72)"/><path class="cls-1" d="M476.23-140.39a10.47,10.47,0,0,0-9.4,5.72,62.25,62.25,0,0,1-59.31,34.47A61.11,61.11,0,0,1,369-116.7c1.43,4.62-.19,8.2-3.43,11.43-3.5,3.49-7.43,4-12.39,2.9a83.14,83.14,0,0,0,58,23.48,83.49,83.49,0,0,0,74.66-46.28A10.59,10.59,0,0,0,476.23-140.39Z" transform="translate(-178.06 245.72)"/><path class="cls-1" d="M350.34-175.56a62.31,62.31,0,0,1,60.77-49,62.28,62.28,0,0,1,55.83,34.79,10.55,10.55,0,0,0,9.47,5.86,10.59,10.59,0,0,0,9.56-15.2,83.47,83.47,0,0,0-80.57-46.47,83.62,83.62,0,0,0-65.51,39.93A184.78,184.78,0,0,1,350.34-175.56Z" transform="translate(-178.06 245.72)"/></svg>