<svg id="Layer_1" data-name="Layer 1" xmlns="http://www.w3.org/2000/svg" viewBox="0 0 137.83 83.16"><defs><style>.cls-1{fill:#f26c4f;}.cls-2{fill:#020312;}</style></defs><title>yellow logo mini</title><circle class="cls-1" cx="41.58" cy="41.58" r="41.58"/><circle class="cls-1" cx="96.25" cy="41.58" r="41.58"/><path class="cls-2" d="M-114.46-23.89a23.49,23.49,0,0,1-3.94-7c0-.19-0.06-0.36-0.1-0.56-0.39-2-.79-3.82-1.19-5.53a96.41,96.41,0,0,0-4.48-14.64l-0.06-.13h0A31.41,31.41,0,0,0-155.08-70a31.48,31.48,0,0,0-29,29,31.42,31.42,0,0,0,31.3,33.72,31.42,31.42,0,0,0,28.2-17.62,31.57,31.57,0,0,0,3.85,6,4,4,0,0,0,6,.29A4,4,0,0,0-114.46-23.89Zm-15-12.86a23.51,23.51,0,0,1-21.42,21.42,23.43,23.43,0,0,1-25.24-25.24A23.5,23.5,0,0,1-154.66-62,23.43,23.43,0,0,1-129.42-36.76Z" transform="translate(194.33 80.25)"/><path class="cls-2" d="M-71.94-30.42a3.94,3.94,0,0,0-3.54,2.15,23.42,23.42,0,0,1-22.32,13c-5.6-.32-9.85-1.88-13.74-5.51a4,4,0,0,1-1.29,4.3,4.58,4.58,0,0,1-4.66,1.09c5.65,5.47,12.58,8.14,21,8.14a31.42,31.42,0,0,0,28.1-17.41A4,4,0,0,0-71.94-30.42Z" transform="translate(194.33 80.25)"/><path class="cls-2" d="M-118.87-45.55c2.29-10.52,13.27-16.53,22.43-16.53A23.44,23.44,0,0,1-75.43-49a4,4,0,0,0,3.56,2.21,4,4,0,0,0,3.6-5.72A31.61,31.61,0,0,0-98.59-70c-8.05.46-19,5.52-24.22,14A56.53,56.53,0,0,1-118.87-45.55Z" transform="translate(194.33 80.25)"/></svg>