<?xml version="1.0" encoding="utf-8"?>
<!-- Generator: Adobe Illustrator 19.2.1, SVG Export Plug-In . SVG Version: 6.00 Build 0)  -->
<svg version="1.1" id="Layer_1" xmlns="http://www.w3.org/2000/svg" xmlns:xlink="http://www.w3.org/1999/xlink" x="0px" y="0px"
	 viewBox="0 0 199.9 4.5" style="enable-background:new 0 0 199.9 4.5;" xml:space="preserve">
<style type="text/css">
	.st0{fill:#383331;}
	.st1{fill:#f26c4f;}
</style>
<g>
	<path class="st0" d="M197.8,4.5H2.3C1,4.5,0,3.5,0,2.3v0C0,1,1,0,2.3,0l195.5,0c1.3,0,2.3,1,2.3,2.3v0C200,3.5,199,4.5,197.8,4.5z"
		/>
	<path class="st1" d="M117.8,4.5L2.3,4.5C1,4.5,0,3.5,0,2.3v0C0,1,1,0,2.3,0l115.5,0c1.3,0,2.3,1,2.3,2.3v0
		C120,3.5,119,4.5,117.8,4.5z"/>
</g>
</svg>
