<?xml version="1.0" encoding="utf-8"?>
<!-- Generator: Adobe Illustrator 19.2.1, SVG Export Plug-In . SVG Version: 6.00 Build 0)  -->
<svg version="1.1" id="Layer_1" xmlns="http://www.w3.org/2000/svg" xmlns:xlink="http://www.w3.org/1999/xlink" x="0px" y="0px"
	 viewBox="0 0 199.9 4.5" style="enable-background:new 0 0 199.9 4.5;" xml:space="preserve">
<style type="text/css">
	.st0{fill:#383331;}
	.st1{fill:#f26c4f;}
</style>
<g>
	<path class="st0" d="M196.8,4.5H1.3C0,4.5-1,3.5-1,2.3v0C-1,1,0,0,1.3,0l195.5,0c1.3,0,2.3,1,2.3,2.3v0
		C199.1,3.5,198,4.5,196.8,4.5z"/>
	<path class="st1" d="M167.7,4.5L2.3,4.5C1,4.5,0,3.5,0,2.3v0C0,1,1,0,2.3,0l165.4,0c1.3,0,2.3,1,2.3,2.3v0
		C169.9,3.5,168.9,4.5,167.7,4.5z"/>
</g>
</svg>
